<?xml version="1.0" standalone="no"?>
<!DOCTYPE svg PUBLIC "-//W3C//DTD SVG 20010904//EN"
 "http://www.w3.org/TR/2001/REC-SVG-20010904/DTD/svg10.dtd">
<svg version="1.0" xmlns="http://www.w3.org/2000/svg"
 width="128.000000pt" height="128.000000pt" viewBox="0 0 128.000000 128.000000"
 preserveAspectRatio="xMidYMid meet">
<metadata>
Created by potrace 1.16, written by Peter Selinger 2001-2019
</metadata>
<g transform="translate(0.000000,128.000000) scale(0.100000,-0.100000)"
fill="#000000" stroke="none">
<path d="M210 1021 l-55 -6 1 -371 c0 -204 4 -379 8 -389 6 -17 28 -18 467
-12 383 4 464 8 476 20 12 12 13 68 6 388 l-8 374 -420 1 c-231 0 -445 -2
-475 -5z m844 -163 c3 -13 6 -143 6 -289 l0 -266 -272 -6 c-149 -4 -340 -7
-425 -7 l-153 0 0 290 0 290 208 3 c114 1 302 3 418 5 l212 2 6 -22z"/>
</g>
</svg>
